<svg xmlns="http://www.w3.org/2000/svg" width="208.571" height="97.35" viewBox="0 0 208.571 97.35"><defs><style>.a{fill:#bf1e2e;}.b{fill:#6b241e;}.c{fill:#a51e2f;}.d{fill:#f7f7f7;opacity:0;}.e{fill:rgba(247,247,247,0);}.f{fill:#fff;}</style></defs><g transform="translate(0 0)"><path class="a" d="M100.652,7.6l-.643-.927a.189.189,0,0,1-.031-.092l-.146-3.75C99.592,1.8,99.893.748,101.159.75l4.213,0c.938,0,1.08.5,1.084,1.343q.01,2.1,0,4.2a1.775,1.775,0,0,1-.465,1.014.172.172,0,0,0-.036.111,142.967,142.967,0,0,1-.129,14.946,38.243,38.243,0,0,1-9.311,22.6c-1.358,1.561-3.534,3.569-4.849,5.073a49.862,49.862,0,0,0-3.918,5.11c-4.533,6.772-1.827,17.206,4.4,22.131a18.447,18.447,0,0,0,19.483,1.864c10.049-5.177,12.753-18.682,5.075-27.123q-2.192-2.411-4.418-4.792a.175.175,0,0,0-.243-.01q-1.02.908-1.711-.078a.926.926,0,0,1,.089-1.266q.25-.262.5-.516a.175.175,0,0,0,.01-.233q-2.72-3.328-5.427-6.66a1.161,1.161,0,0,1,.03-1.777c.634-.6,1.417-1.469,2.308-.617l6.356,6.086a.172.172,0,0,0,.233.005q.238-.207.479-.391a1.046,1.046,0,0,1,1.57.188c.422.665.075,1.072-.375,1.575a.174.174,0,0,0,0,.236,64.138,64.138,0,0,1,6,6.806c7.447,10.587,4.665,24.351-5.888,31.609a22.572,22.572,0,0,1-32.781-7.612c-4.658-8.425-3.984-18.119,2.108-25.558,1.381-1.685,3.394-3.5,5.115-5.193a32.735,32.735,0,0,0,9.967-23.059Q100.634,14.2,100.652,7.6ZM113.1,41.779a.047.047,0,0,0-.066,0l-2.369,2.171a.047.047,0,0,0,0,.066l.46.5a.047.047,0,0,0,.066,0l2.369-2.171a.047.047,0,0,0,0-.066Z" transform="translate(-68.437 -0.75)"/><path class="b" d="M191.842,12.73l.146,3.75a.189.189,0,0,0,.031.092l.643.927a1.2,1.2,0,0,1-.879-.858A27.276,27.276,0,0,1,191.842,12.73Z" transform="translate(-160.448 -10.649)"/><path class="c" d="M30.846,49.548a1.987,1.987,0,0,0,.644-.557,2.834,2.834,0,0,1,1.476-.491h.564a2.864,2.864,0,0,1,1.455.577l.592.993q.078,2.169-.016,5.252A32.837,32.837,0,0,1,26.285,77q-1.021,1.092-2.039,2.188a26.975,26.975,0,0,0-7.5,18.689c-.134,12.739,6.271,22.616,17.689,28.028a22.217,22.217,0,0,0,10.327,2.352q1.386-.062,2.213-.054a28.817,28.817,0,0,0,28.189-22.477c1.865-8.863.363-17.718-5.165-24.938q-.488-.637-2.272-2.622a58.42,58.42,0,0,1-7.058-9.641c-4.125-7.112-4.033-14.677-3.9-22.576.035-2.093,1.815-2.563,3.55-2.223,1.464.288,1.688,1.332,1.693,2.732.019,4.319-.127,8.767.695,12.935a26.254,26.254,0,0,0,6.506,12.885q1.275,1.393,2.537,2.8a36.685,36.685,0,0,1,6.989,11.171,34.016,34.016,0,0,1-2.6,30.265,41.779,41.779,0,0,1-5.681,7.166,33.945,33.945,0,0,1-29.853,9.3c-8.823-1.671-17.02-6.237-22.218-13.694a37.479,37.479,0,0,1-6.492-16.358,31.906,31.906,0,0,1,4.88-21.774,70.518,70.518,0,0,1,6.2-8.112q1.591-1.858,2.2-2.69a28.729,28.729,0,0,0,5.488-14.908C30.778,53.791,30.763,51.512,30.846,49.548Z" transform="translate(-11.574 -36.175)"/><path class="a" d="M127.03,52.778l-.592-.993.028-1.884a.174.174,0,0,0-.08-.149l-1.087-.695q-.259-.167-.267.142l-.049,2.009h-.564l0-2.077q0-.3-.262-.149l-1.1.641a.175.175,0,0,0-.083.129,8.447,8.447,0,0,0-.031,1.949,1.987,1.987,0,0,1-.644.557,18.536,18.536,0,0,1,.109-2.942.175.175,0,0,1,.083-.129l.964-.58q.429-.257-.073-.257h-.962a.171.171,0,0,1-.14-.072.175.175,0,0,1-.023-.157l.122-.366a.177.177,0,0,1,.061-.085,3.662,3.662,0,0,1,4.7.168.174.174,0,0,1-.009.243.17.17,0,0,0-.049.181.139.139,0,0,1-.142.175l-.722-.042q-.521-.031-.083.255l.9.585a.174.174,0,0,1,.078.151Z" transform="translate(-103.026 -38.884)"/><path class="d" d="M127.527,60.872a2.834,2.834,0,0,0-1.476.492,8.447,8.447,0,0,1,.031-1.949.175.175,0,0,1,.083-.129l1.1-.641q.26-.153.262.149Z" transform="translate(-106.134 -48.548)"/><path class="d" d="M139.455,61.77A2.864,2.864,0,0,0,138,61.194l.049-2.009q.009-.309.267-.142l1.087.695a.174.174,0,0,1,.08.149Z" transform="translate(-116.043 -48.87)"/><rect class="d" width="3.307" height="0.775" rx="0.27" transform="translate(42.191 43.229) rotate(-42.5)"/><path class="c" d="M170.82,313.316a12.823,12.823,0,0,1,1.846,2.06.391.391,0,0,1-.028.568q-.413.4-1,.953a.563.563,0,0,1-.858.021q-.537-.495-1.049-1.018-.446-.459-.229.144.231.639.432,1.278.182.58-.262.749-.722.276-1.376.544a.409.409,0,0,1-.573-.21,12.421,12.421,0,0,1-.953-2.31q-.038-.13-.1-.012a12.625,12.625,0,0,0-.019,2.063,2.217,2.217,0,0,1-.215.979.176.176,0,0,1-.156.1l-1.825.01a.173.173,0,0,1-.16-.1,2.664,2.664,0,0,1-.2-1.115q0-.813,0-1.624,0-.651-.266-.057l-.938,2.11a.541.541,0,0,1-.78.347l-1.554-.66a.176.176,0,0,1-.1-.208,17.637,17.637,0,0,1,1.094-2.836c.082-.168-.014-.167-.092-.082a14.778,14.778,0,0,1-2.154,1.98.174.174,0,0,1-.228-.016l-1.212-1.205a.522.522,0,0,1,.024-.83l2.141-2.181q.424-.432-.146-.228l-3.291,1.178a.46.46,0,0,1-.672-.285l-.589-1.58a.175.175,0,0,1,.043-.188,2.789,2.789,0,0,1,.87-.524c.241-.1,2.61-.981,2.614-1.014,0,0-.007-.009-.019-.013a.2.2,0,0,0-.047-.008l-3.039-.2a.5.5,0,0,1-.523-.6l.115-1.657a.175.175,0,0,1,.151-.161,9.6,9.6,0,0,1,2-.056q.733.056.071-.264l-1.534-.743a1.478,1.478,0,0,1-.6-.516.171.171,0,0,1-.012-.168l.644-1.391a.544.544,0,0,1,.785-.32q1.513.623,2.867,1.268a.173.173,0,0,0,.064.017q.085,0,.028-.061l-2.115-2.362a.442.442,0,0,1,.063-.7L159,301.051a.174.174,0,0,1,.208-.019,4.306,4.306,0,0,1,.853.681q.63.674,1.266,1.339.516.54.229-.149-.5-1.19-.881-2.421-.165-.526.271-.7l1.619-.637a.175.175,0,0,1,.217.08,18.123,18.123,0,0,1,1.2,2.815c.057.172.13.13.12,0a12.981,12.981,0,0,1,.085-2.89.174.174,0,0,1,.172-.149l1.876,0a.174.174,0,0,1,.149.085,1.631,1.631,0,0,1,.257.87q-.042,1.188.021,2.374.031.589.266.049.721-1.657.863-2a1.844,1.844,0,0,1,.577-.776.176.176,0,0,1,.174-.023l1.4.59a.566.566,0,0,1,.33.825q-.359.927-.717,1.855-.264.684.233.144a13.933,13.933,0,0,1,1.938-1.754.174.174,0,0,1,.227.016l1.188,1.188a.512.512,0,0,1,0,.809l-1.879,1.964q-.4.42.146.226.719-.254,1.763-.646a2.121,2.121,0,0,1,.933-.122.173.173,0,0,1,.148.113l.646,1.719a.173.173,0,0,1-.045.189,2.619,2.619,0,0,1-.856.528q-.881.333-1.759.676-.6.234.042.269,1.157.061,2.31.146a1.641,1.641,0,0,1,.818.26.174.174,0,0,1,.076.153l-.1,1.792a.175.175,0,0,1-.09.144c-.749.4-2.8.111-3.672.024a.046.046,0,0,0-.029.007.028.028,0,0,0-.014.021c0,.04,0,.028.023.036a28.374,28.374,0,0,1,2.612,1.216.48.48,0,0,1,.248.679c-.158.389-.4.832-.577,1.3-.377.985-2.532-.762-3.048-.716Q170.744,313.247,170.82,313.316Zm-.038-4.391a5.466,5.466,0,1,0-5.466,5.466A5.466,5.466,0,0,0,170.782,308.926Z" transform="translate(-130.268 -247.202)"/><path class="b" d="M192.841,330.146a5.466,5.466,0,1,1-5.466-5.466A5.466,5.466,0,0,1,192.841,330.146Zm-2.1.005a3.373,3.373,0,1,0-3.373,3.373A3.373,3.373,0,0,0,190.745,330.151Z" transform="translate(-152.327 -268.422)"/><path class="e" d="M3.373,0A3.373,3.373,0,1,1,0,3.373,3.373,3.373,0,0,1,3.373,0Z" transform="translate(31.672 58.356)"/><g transform="translate(266.464 89.724)"><path class="f" d="M792.572,186.446a14.646,14.646,0,0,1-3.563-8.118,15.783,15.783,0,0,1,.294-5.4,15.172,15.172,0,0,1,1.325-3.557q3.578-6.91,11.917-8.292a19.944,19.944,0,0,1,6.328.083,16.505,16.505,0,0,1,8.981,4.336.138.138,0,0,1,.006.2l-3.469,3.75a.1.1,0,0,1-.143.008q-.818-.705-1.667-1.321a12.154,12.154,0,0,0-5.866-2.259,10.557,10.557,0,0,0-7.5,1.809,9.835,9.835,0,0,0-3.441,4.27,11.136,11.136,0,0,0-.873,5.523,10.692,10.692,0,0,0,1.595,4.753,10.243,10.243,0,0,0,7.1,4.712,11.612,11.612,0,0,0,4-.04,11.732,11.732,0,0,0,4.573-1.9q1.2-.822,2.311-1.758a.13.13,0,0,1,.169.006l3.4,3.24a.2.2,0,0,1,0,.3,20.741,20.741,0,0,1-3.674,2.831,16,16,0,0,1-6.005,2.145,22.18,22.18,0,0,1-4.012.2,16.3,16.3,0,0,1-8.876-2.92A15.726,15.726,0,0,1,792.572,186.446Z" transform="translate(-913.054 -229.687)"/><path class="f" d="M957.063,187.805a14.711,14.711,0,0,1-4.877-8.919,15.611,15.611,0,0,1-.088-3.771,14.785,14.785,0,0,1,5.046-9.911,15.4,15.4,0,0,1,3.229-2.234,18.129,18.129,0,0,1,8.086-1.986,18.666,18.666,0,0,1,6.067.86,16.525,16.525,0,0,1,3.6,1.661,14.636,14.636,0,0,1,7.051,9.97,15.333,15.333,0,0,1,.282,3.761,14.761,14.761,0,0,1-4.032,9.569,15.1,15.1,0,0,1-3,2.495,18.024,18.024,0,0,1-13.54,2.4A15.814,15.814,0,0,1,957.063,187.805Zm12.325-.6a10.679,10.679,0,0,0,10.18-11.253,10.859,10.859,0,0,0-11.451-10.117,10.678,10.678,0,0,0-10.179,11.253A10.857,10.857,0,0,0,969.388,187.209Z" transform="translate(-1043.373 -229.779)"/><path class="f" d="M652.393,179.327a35.167,35.167,0,0,1-5.955-1.784,10.866,10.866,0,0,1-1.649-.856,8.319,8.319,0,0,1-1.446-1.121,6.1,6.1,0,0,1-1.844-3.54q-.991-7.042,5.693-9.722a12.09,12.09,0,0,1,3.318-.792,20.789,20.789,0,0,1,3.395-.028,18.256,18.256,0,0,1,9.936,3.676.1.1,0,0,1,.022.14l-2.916,3.856a.107.107,0,0,1-.143.023q-.925-.624-1.936-1.2a14,14,0,0,0-6.007-1.8,8.659,8.659,0,0,0-2.916.27A4.944,4.944,0,0,0,647.9,167.6a3.155,3.155,0,0,0,.453,4.75,8.739,8.739,0,0,0,2.154.992q2.188.709,5.011,1.346a24.207,24.207,0,0,1,4.808,1.652,7.318,7.318,0,0,1,4.09,4.241,8.744,8.744,0,0,1,.418,3.731,7.961,7.961,0,0,1-4.641,6.608,12.885,12.885,0,0,1-5.219,1.351,20.38,20.38,0,0,1-14.8-4.649.148.148,0,0,1-.016-.215l3.264-3.629a.1.1,0,0,1,.137-.011,19.587,19.587,0,0,0,2.508,1.8,14.13,14.13,0,0,0,8.609,2.015,6.725,6.725,0,0,0,2.246-.586,3.347,3.347,0,0,0,2.276-3.1,3,3,0,0,0-.676-2.013,4.321,4.321,0,0,0-1.925-1.306A31.4,31.4,0,0,0,652.393,179.327Z" transform="translate(-794.19 -230.143)"/><path class="f" d="M652.393,179.327a35.167,35.167,0,0,1-5.955-1.784,10.866,10.866,0,0,1-1.649-.856,8.319,8.319,0,0,1-1.446-1.121,6.1,6.1,0,0,1-1.844-3.54q-.991-7.042,5.693-9.722a12.09,12.09,0,0,1,3.318-.792,20.789,20.789,0,0,1,3.395-.028,18.256,18.256,0,0,1,9.936,3.676.1.1,0,0,1,.022.14l-2.916,3.856a.107.107,0,0,1-.143.023q-.925-.624-1.936-1.2a14,14,0,0,0-6.007-1.8,8.659,8.659,0,0,0-2.916.27A4.944,4.944,0,0,0,647.9,167.6a3.155,3.155,0,0,0,.453,4.75,8.739,8.739,0,0,0,2.154.992q2.188.709,5.011,1.346a24.207,24.207,0,0,1,4.808,1.652,7.318,7.318,0,0,1,4.09,4.241,8.744,8.744,0,0,1,.418,3.731,7.961,7.961,0,0,1-4.641,6.608,12.885,12.885,0,0,1-5.219,1.351,20.38,20.38,0,0,1-14.8-4.649.148.148,0,0,1-.016-.215l3.264-3.629a.1.1,0,0,1,.137-.011,19.587,19.587,0,0,0,2.508,1.8,14.13,14.13,0,0,0,8.609,2.015,6.725,6.725,0,0,0,2.246-.586,3.347,3.347,0,0,0,2.276-3.1,3,3,0,0,0-.676-2.013,4.321,4.321,0,0,0-1.925-1.306A31.4,31.4,0,0,0,652.393,179.327Z" transform="translate(-824.111 -230.249)"/><path class="f" d="M.006,1.727Z" transform="matrix(0.056, 0.998, -0.998, 0.056, -73.533, -64.043)"/><ellipse class="f" cx="0.591" cy="0.556" rx="0.591" ry="0.556" transform="translate(-64.785 -31.225)"/><path class="f" d="M581.135,368.833a14.068,14.068,0,0,1-1.846-.061,2.322,2.322,0,0,1-1.848-1.24,2.545,2.545,0,0,1,.113-2.521,2.477,2.477,0,0,1,2.224-1.385,2.657,2.657,0,0,1,1.585.42,2,2,0,0,1,.857,1.47,11.911,11.911,0,0,1,.078,1.992.253.253,0,0,0,.247.253,15.877,15.877,0,0,0,3.332-.123q.334-.051.087-.268a11.071,11.071,0,0,1-.983-.973,2.188,2.188,0,0,1-.587-1.748.218.218,0,0,1,.092-.151,5,5,0,0,1,3.525-.917,2.973,2.973,0,0,1,1.482.476q.768.586.193,1.741a5.079,5.079,0,0,1-1.4,1.724q-.187.149.058.168a35.773,35.773,0,0,0,3.724.1q.02,0,.485.017.869.036.867-.875,0-.709,0-1.506a.1.1,0,0,1,.1-.1l.893.006a.1.1,0,0,1,.1.1q.018.442.028.885.034,1.5,1.689,1.465.706-.017.72-.662.024-1.1.044-2.209a.1.1,0,0,1,.1-.1l.861,0a.136.136,0,0,1,.139.138q-.024.639,0,1.2a1.916,1.916,0,0,0,.32,1.134,1.671,1.671,0,0,0,1.432.5.969.969,0,0,0,.647-.219.819.819,0,0,0,.173-.55q.066-1.329.03-2.784a.129.129,0,0,1,.133-.13l.814.006a.1.1,0,0,1,.1.1q.014.807.012,1.614a3.326,3.326,0,0,0,.157,1.263,1.355,1.355,0,0,0,1.337.7q.734.005,1.637.008a.131.131,0,0,0,.135-.127l.012-7.562a.122.122,0,0,1,.1-.119,2.015,2.015,0,0,1,.889,0,.124.124,0,0,1,.1.119l-.024,8.6a.1.1,0,0,1-.1.1,20.911,20.911,0,0,1-3.38-.017,1.507,1.507,0,0,1-1-.679.066.066,0,0,0-.107.006,1.518,1.518,0,0,1-1.015.7,4.412,4.412,0,0,1-1.187.045,1.718,1.718,0,0,1-1.331-.773.08.08,0,0,0-.131,0,1.459,1.459,0,0,1-1.06.718,3.878,3.878,0,0,1-1.448-.026,1.435,1.435,0,0,1-.927-.682.064.064,0,0,0-.1-.008,1.82,1.82,0,0,1-1.444.741q-1.585.008-3.167.025a5.551,5.551,0,0,1-2.476-.541.206.206,0,0,0-.177,0,5.887,5.887,0,0,1-2.828.525,13.416,13.416,0,0,0-1.812.04.107.107,0,0,0-.1.1,2.554,2.554,0,0,1-1.048,2.092,3.212,3.212,0,0,1-1.544.55,9.079,9.079,0,0,1-1.689.034.243.243,0,0,1-.225-.255l.036-.692a.1.1,0,0,1,.114-.089,5.456,5.456,0,0,0,1.782,0,1.779,1.779,0,0,0,1.07-.525,1.738,1.738,0,0,0,.436-1.153A.094.094,0,0,0,581.135,368.833Zm5.856-1.86a.445.445,0,0,0,.519.013,4.165,4.165,0,0,0,1.221-1.306q.318-.529-.02-.832a1.327,1.327,0,0,0-.692-.259,4.388,4.388,0,0,0-2.628.45.094.094,0,0,0-.042.132A6.25,6.25,0,0,0,586.99,366.974Zm-8.036.527a3.218,3.218,0,0,0,2.1.253.139.139,0,0,0,.113-.115,5.708,5.708,0,0,0,.008-1.51,1.846,1.846,0,0,0-.535-1.21,1.2,1.2,0,0,0-1.132-.244,1.636,1.636,0,0,0-.9.539,1.6,1.6,0,0,0-.269,1.55A1.125,1.125,0,0,0,578.954,367.5Z" transform="translate(-743.894 -391.121)"/><rect class="f" width="1.058" height="8.883" rx="0.52" transform="translate(-135.699 -31.184)"/><path class="f" d="M851.121,368.179a2.648,2.648,0,0,1-.624.5,1.563,1.563,0,0,1-.76.187q-2.7.068-5.552.034a.168.168,0,0,1-.175-.163l.006-.769a.1.1,0,0,1,.1-.094l2.642-.011a.108.108,0,0,0,.111-.1V362.6a.131.131,0,0,1,.135-.127h.858a.11.11,0,0,1,.113.106v5.175a.109.109,0,0,0,.112.106h.847l.392.021q.855.047.854-.824,0-3.466.018-6.933a.1.1,0,0,1,.1-.1l.891,0a.1.1,0,0,1,.1.1v5.674a3.85,3.85,0,0,0,.143,1.285,1.263,1.263,0,0,0,1.3.767q.8,0,.829,0a13.089,13.089,0,0,0,1.5.015.645.645,0,0,0,.7-.7l.01-1.643a.1.1,0,0,1,.1-.1l.847,0a.145.145,0,0,1,.147.151,5.345,5.345,0,0,0,.026,1.006,1.582,1.582,0,0,0,.31.839,1.291,1.291,0,0,0,.887.454,3.1,3.1,0,0,0,.768.009.621.621,0,0,0,.491-.357,1.3,1.3,0,0,0,.078-.535q0-.968.012-1.937a.113.113,0,0,1,.1-.121l.822.006a.18.18,0,0,1,.173.187q0,.745.014,1.287.042,1.586,1.747,1.495l.692-.038a.1.1,0,0,0,.1-.1l.01-3.438a.147.147,0,0,1,.151-.142h.8a.1.1,0,0,1,.1.1v4.5a.131.131,0,0,1-.135.127l-2.178,0a1.562,1.562,0,0,1-1.408-.718.064.064,0,0,0-.1,0,1.435,1.435,0,0,1-1,.675,4.358,4.358,0,0,1-1.647-.011,1.517,1.517,0,0,1-.9-.7.079.079,0,0,0-.129-.006,1.827,1.827,0,0,1-1.547.762q-1.231.008-2.464.008a1.6,1.6,0,0,1-1.42-.711A.075.075,0,0,0,851.121,368.179Z" transform="translate(-957.081 -391.199)"/><path class="f" d="M974.606,363.976a7.46,7.46,0,0,1,1.293.059,2.058,2.058,0,0,1,1.78,2.126q.03,1.323.03,2.7a.192.192,0,0,1-.2.187h-7.686a6.967,6.967,0,0,1-1.906-.176,2.168,2.168,0,0,1-1.442-1.361,2.75,2.75,0,0,1-.046-1.754,2.65,2.65,0,0,1,1.136-1.518,2.535,2.535,0,0,1,1.886-.374,2.475,2.475,0,0,1,1.337.639,2.125,2.125,0,0,1,.629,1.378,15.645,15.645,0,0,1,.052,1.966.161.161,0,0,0,.167.161l4.851-.011a.1.1,0,0,0,.1-.094q.02-.75.032-1.5a1.234,1.234,0,0,0-.666-1.246,3.59,3.59,0,0,0-1.257-.2l-1.281-.053a.118.118,0,0,1-.115-.1,2.8,2.8,0,0,1-.024-.616,1.2,1.2,0,0,1,.209-.567q1.11-1.7,2.264-3.37a.11.11,0,0,1,.145-.04l.72.482a.1.1,0,0,1,.014.147l-2.079,3.056Q974.5,363.976,974.606,363.976Zm-6.021,3.929a3.993,3.993,0,0,0,1.577.049.219.219,0,0,0,.193-.2,6.876,6.876,0,0,0-.044-1.387,1.976,1.976,0,0,0-.567-1.24,1.124,1.124,0,0,0-1.265-.181,1.784,1.784,0,0,0-.867.726,1.353,1.353,0,0,0-.07,1.425A1.567,1.567,0,0,0,968.585,367.906Z" transform="translate(-1054.785 -391.344)"/><ellipse class="f" cx="0.589" cy="0.554" rx="0.589" ry="0.554" transform="translate(-182.775 -29.923)"/><ellipse class="f" cx="0.591" cy="0.556" rx="0.591" ry="0.556" transform="translate(-181.021 -29.931)"/><ellipse class="f" cx="0.585" cy="0.55" rx="0.585" ry="0.55" transform="translate(-125.602 -29.919)"/><ellipse class="f" cx="0.589" cy="0.554" rx="0.589" ry="0.554" transform="translate(-123.852 -29.927)"/><ellipse class="f" cx="0.593" cy="0.558" rx="0.593" ry="0.558" transform="translate(-87.276 -29.929)"/><ellipse class="f" cx="0.589" cy="0.554" rx="0.589" ry="0.554" transform="translate(-85.528 -29.923)"/><ellipse class="f" cx="0.589" cy="0.554" rx="0.589" ry="0.554" transform="translate(-65.666 -29.923)"/><ellipse class="f" cx="0.591" cy="0.556" rx="0.591" ry="0.556" transform="translate(-63.918 -29.927)"/><path class="f" d="M548.063,383.327a8.565,8.565,0,0,0-.042-2.066,1.3,1.3,0,0,0-1.257-1,12.58,12.58,0,0,0-1.568-.04.112.112,0,0,1-.125-.106l.006-.762a.115.115,0,0,1,.117-.1,10.206,10.206,0,0,1,1.822.021,2.27,2.27,0,0,1,1.766.917,3.15,3.15,0,0,1,.382,1.637q.036,1.195.01,2.482a.172.172,0,0,1-.177.162h-4.575a.166.166,0,0,1-.171-.161v-.754a.131.131,0,0,1,.135-.125l3.576-.011A.1.1,0,0,0,548.063,383.327Z" transform="translate(-717.603 -406.774)"/><path class="f" d="M496.727,383.641l2.6.009a.1.1,0,0,0,.1-.094v-3.1q0-.013-.018-.217-.032-.363.424-.27a.955.955,0,0,0,.414,0q.28-.062.255.181-.018.2-.018.214.024,2.1-.036,4.2a.1.1,0,0,1-.1.1q-2.5.047-4.993.042a7.315,7.315,0,0,1-2.467-.306,2.08,2.08,0,0,1-1.329-2.646,2.923,2.923,0,0,1,.714-1.465,2.483,2.483,0,0,1,1.627-.775,2.565,2.565,0,0,1,1.866.49,2.2,2.2,0,0,1,.839,1.86q0,.845.02,1.69A.1.1,0,0,0,496.727,383.641Zm-3.543-.31a3.425,3.425,0,0,0,2.176.274.161.161,0,0,0,.141-.147,10.04,10.04,0,0,0-.056-1.7,1.3,1.3,0,0,0-.835-1.166,1.427,1.427,0,0,0-1.279.129,1.54,1.54,0,0,0-.752,1.368A1.231,1.231,0,0,0,493.184,383.331Z" transform="translate(-675.448 -406.99)"/><path class="f" d="M783.513,383.723a1.4,1.4,0,0,1-1.369.86q-1.609.025-3.217.025a5.108,5.108,0,0,1-1.448-.17,2.168,2.168,0,0,1-1.717-2.24,2.728,2.728,0,0,1,1.042-2.232,2.543,2.543,0,0,1,1.358-.561,2.718,2.718,0,0,1,1.4.219,2.176,2.176,0,0,1,1.323,2.2q0,.82.018,1.642a.108.108,0,0,0,.1.1,3.816,3.816,0,0,0,.563-.008,5.135,5.135,0,0,1,.559,0,.866.866,0,0,0,.927-.648,3.268,3.268,0,0,0,.153-.839,4.105,4.105,0,0,1,.112-.839,2.377,2.377,0,0,1,1.48-1.591,2.836,2.836,0,0,1,1.975-.062,2.173,2.173,0,0,1,1.42,1.572,3.266,3.266,0,0,1-.048,2.024,2.07,2.07,0,0,1-1.824,1.438,3,3,0,0,1-2.715-.9A.055.055,0,0,0,783.513,383.723Zm-5.377-.229a4.3,4.3,0,0,0,1.494.034.163.163,0,0,0,.143-.149q.028-.65,0-1.221a2.414,2.414,0,0,0-.312-1.17,1.143,1.143,0,0,0-1.434-.5,1.7,1.7,0,0,0-1.02.8,1.334,1.334,0,0,0,0,1.414A1.662,1.662,0,0,0,778.135,383.494Zm7.671.166a1.61,1.61,0,1,0-1.561-1.586A1.57,1.57,0,0,0,785.806,383.66Z" transform="translate(-902.557 -406.908)"/><path class="f" d="M1035.823,385.983a1.2,1.2,0,0,1-.979.7,16.441,16.441,0,0,1-2.18.055q-.02,0-.563.015a2.019,2.019,0,0,1-1.55-.6q-.069-.066-.065.025a4.145,4.145,0,0,1-.167,1.6,2.439,2.439,0,0,1-3.107,1.476.108.108,0,0,1-.085-.117l.074-.748a.151.151,0,0,1,.187-.128q1.993.476,1.981-1.474-.014-2.334.006-4.667a.1.1,0,0,1,.1-.1l.867-.006a.124.124,0,0,1,.127.123q0,1.1.016,2.191a1.317,1.317,0,0,0,.483,1.066,1.8,1.8,0,0,0,1.068.293q1.232.042,2.278-.019.68-.04.68-.68v-1.62a.111.111,0,0,1,.113-.113l.859.008a.115.115,0,0,1,.106.108,6.886,6.886,0,0,1,.036.7,2.458,2.458,0,0,0,.07.694q.34,1.051,1.754.926.585-.053.593-.569l.034-2.219a.187.187,0,0,1,.189-.183h.817a.1.1,0,0,1,.1.1q0,.8.034,1.459.077,1.5,1.776,1.419a.815.815,0,0,0,.625-.257.972.972,0,0,0,.145-.556q.067-1.287.03-2.72a.129.129,0,0,1,.129-.134l.8,0a.109.109,0,0,1,.1.108,16.515,16.515,0,0,1-.069,3.557,1.149,1.149,0,0,1-.967.909,3.69,3.69,0,0,1-1.808.042,1.28,1.28,0,0,1-.9-.716c-.036-.074-.075-.076-.117,0a1.485,1.485,0,0,1-.877.731,2.371,2.371,0,0,1-2.646-.688A.061.061,0,0,0,1035.823,385.983Z" transform="translate(-1103.373 -409.034)"/><ellipse class="f" cx="0.587" cy="0.552" rx="0.587" ry="0.552" transform="translate(-177.564 -20.877)"/><ellipse class="f" cx="0.589" cy="0.554" rx="0.589" ry="0.554" transform="translate(-175.823 -20.885)"/><rect class="f" width="1.058" height="7.984" rx="0.52" transform="translate(-171.495 -16.347)"/><path class="f" d="M672.686,441.982a2.3,2.3,0,0,1,1.627-.631,1.822,1.822,0,0,1,1.6.718,2.81,2.81,0,0,1,.346,1.459q.054,1.421-.02,2.845a.109.109,0,0,1-.1.108l-.808.008a.113.113,0,0,1-.113-.115q0-1.431.008-2.8a1.2,1.2,0,0,0-.472-1.042,1.272,1.272,0,0,0-1.044-.2,1.259,1.259,0,0,0-.925.669,2.314,2.314,0,0,0-.173,1.005q-.01,1.17-.02,2.34a.124.124,0,0,1-.1.121,1.813,1.813,0,0,1-.839,0,.124.124,0,0,1-.1-.121V438.62a.1.1,0,0,1,.1-.1l.818,0a.121.121,0,0,1,.125.121l.012,3.315Q672.616,442.047,672.686,441.982Z" transform="translate(-819.311 -454.863)"/><path class="f" d="M811.447,445.961a2.651,2.651,0,0,1-1.37.635,2.644,2.644,0,0,1-1.313-5.113,2.872,2.872,0,0,1,2.285.24.679.679,0,0,1,.207.17q.324.371.292-.172-.012-.206-.012-.267-.008-1.416.01-2.831a.1.1,0,0,1,.1-.1l.817,0a.122.122,0,0,1,.126.121v7.7a.166.166,0,0,1-.171.161h-.782a.108.108,0,0,1-.109-.108l0-.4Q811.531,445.893,811.447,445.961Zm-1.662-.265a1.71,1.71,0,1,0-1.692-1.733A1.718,1.718,0,0,0,809.784,445.7Z" transform="translate(-927.474 -454.863)"/><path class="f" d="M492.261,443.413a1.74,1.74,0,0,1-.123-2.071,2.564,2.564,0,0,1,1.559-1.1,3.6,3.6,0,0,1,2.97.5.268.268,0,0,1,.012.431l-.453.423a.256.256,0,0,1-.31.03,2.347,2.347,0,0,0-1.8-.446,1.371,1.371,0,0,0-.935.658.789.789,0,0,0,.085.945,1.716,1.716,0,0,0,.756.489q.632.246,1.275.465a3.665,3.665,0,0,1,1.084.516,1.46,1.46,0,0,1,.563,1.081,2.257,2.257,0,0,1-2.1,2.557,3.386,3.386,0,0,1-3.095-.847.1.1,0,0,1-.018-.145l.736-.611a.153.153,0,0,1,.191.015,2.075,2.075,0,0,0,2.246.5,1.5,1.5,0,0,0,.794-.663q.31-.59-.376-1.13a4.378,4.378,0,0,0-1.194-.484,6.6,6.6,0,0,1-1.05-.4A2.2,2.2,0,0,1,492.261,443.413Z" transform="translate(-675.623 -456.152)"/><path class="f" d="M716.97,443.888a1.671,1.671,0,0,1-.686-1.036,2,2,0,0,1,.493-1.977,2.942,2.942,0,0,1,1.762-.75,3.536,3.536,0,0,1,2.461.635q.308.208-.161.51a1.044,1.044,0,0,0-.336.344q-.133.221-.32.042-.167-.161-.193-.178a1.82,1.82,0,0,0-1.741-.272,1.261,1.261,0,0,0-.8.692.848.848,0,0,0,.094.841,1.484,1.484,0,0,0,.65.49,8.831,8.831,0,0,0,1.428.493,2.276,2.276,0,0,1,1.245.752,1.844,1.844,0,0,1,.4,1.246,2.152,2.152,0,0,1-1.563,2.053,3.377,3.377,0,0,1-1.948.106,3.125,3.125,0,0,1-1.735-.885.1.1,0,0,1,.008-.142l.776-.612a.106.106,0,0,1,.143.027,1.655,1.655,0,0,0,.809.573,1.754,1.754,0,0,0,2.224-.65.693.693,0,0,0,.014-.828,1.5,1.5,0,0,0-.617-.465,8.333,8.333,0,0,0-1.357-.478A3.309,3.309,0,0,1,716.97,443.888Z" transform="translate(-854.803 -456.145)"/><path class="f" d="M870.537,446.211a3.487,3.487,0,0,1-.565-2.867,4.15,4.15,0,0,1,6.757-2.147.131.131,0,0,1,0,.208l-.756.535a.136.136,0,0,1-.163-.017,2.667,2.667,0,0,0-2.657-.641,2.887,2.887,0,0,0-1.7,1.349,3.024,3.024,0,0,0-.289,2.236,2.681,2.681,0,0,0,.8,1.416,2.849,2.849,0,0,0,1.446.7,2.751,2.751,0,0,0,2.6-.864.118.118,0,0,1,.151-.015l.732.533a.092.092,0,0,1,.014.136,3.368,3.368,0,0,1-1.621,1.04,4.114,4.114,0,0,1-4.758-1.6Z" transform="translate(-977.746 -456.207)"/><ellipse class="f" cx="0.732" cy="0.688" rx="0.732" ry="0.688" transform="translate(-113.542 -15.846)"/><path class="f" d="M526.632,458.077a2.723,2.723,0,0,1-1.76.694,2.183,2.183,0,0,1-1.364-.369,1.4,1.4,0,0,1-.563-1.393,1.265,1.265,0,0,1,.386-.764,1.914,1.914,0,0,1,.732-.425,5.439,5.439,0,0,1,2.258-.267.236.236,0,0,0,.257-.295,1.246,1.246,0,0,0-1.51-.932,2.326,2.326,0,0,0-1.14.493.122.122,0,0,1-.155,0l-.476-.448a.127.127,0,0,1,.028-.2,3.363,3.363,0,0,1,2.9-.533,1.863,1.863,0,0,1,1.02.616,1.741,1.741,0,0,1,.326,1.191,29.446,29.446,0,0,0,.044,3.024.131.131,0,0,1-.087.132q-.975.382-.843-.5C526.7,458.048,526.677,458.038,526.632,458.077Zm-2.295-.3q1.768.645,2.238-1.1.127-.469-.388-.435a11.031,11.031,0,0,0-1.327.166,1.054,1.054,0,0,0-.855.684A.472.472,0,0,0,524.337,457.776Z" transform="translate(-700.572 -467.024)"/><path class="f" d="M568.848,458.133a2.852,2.852,0,0,1-1.412.578,2.4,2.4,0,0,1-1.442-.251,1.294,1.294,0,0,1-.646-1.654,1.4,1.4,0,0,1,.412-.692,1.8,1.8,0,0,1,.764-.416,7.825,7.825,0,0,1,2.25-.206.092.092,0,0,0,.1-.091,1.033,1.033,0,0,0-1.094-1.121,2.394,2.394,0,0,0-1.528.463.157.157,0,0,1-.169.008,1.574,1.574,0,0,1-.5-.471.1.1,0,0,1,.026-.142,3.381,3.381,0,0,1,2.222-.662q2.3.121,2.061,2.363a23.073,23.073,0,0,0,.034,2.684.1.1,0,0,1-.1.1l-.7-.019a.128.128,0,0,1-.116-.108l-.066-.335A.059.059,0,0,0,568.848,458.133Zm-1.832-.278q1.536.329,1.894-1.365a.227.227,0,0,0-.227-.268,5.045,5.045,0,0,0-1.693.225,1.14,1.14,0,0,0-.531.327.562.562,0,0,0-.09.65A.865.865,0,0,0,567.016,457.855Z" transform="translate(-734.398 -466.989)"/><path class="f" d="M596.362,454.084a.6.6,0,0,0,.165-.119.916.916,0,0,1,.155-.132,2.03,2.03,0,0,1,2.825.325.094.094,0,0,0,.133,0,2.237,2.237,0,0,1,2.536-.58,1.494,1.494,0,0,1,.835.7,2.494,2.494,0,0,1,.229.973,21.727,21.727,0,0,1,.022,3.2.113.113,0,0,1-.1.11h-.782a.113.113,0,0,1-.1-.112,17.2,17.2,0,0,1-.032-2.043,3.817,3.817,0,0,0-.1-1.253.987.987,0,0,0-.519-.66,1.2,1.2,0,0,0-1.633.459,1.959,1.959,0,0,0-.213,1.264q.022.376-.01,2.211a.126.126,0,0,1-.1.117,1.815,1.815,0,0,1-.839,0,.12.12,0,0,1-.095-.119q.01-1.41-.042-2.82a1.526,1.526,0,0,0-.3-.977,1.02,1.02,0,0,0-1.271-.149,1.341,1.341,0,0,0-.81,1.359q0,1.293-.016,2.587a.127.127,0,0,1-.1.119,1.816,1.816,0,0,1-.839,0,.123.123,0,0,1-.1-.117l-.012-4.617a.18.18,0,0,1,.147-.172q.961-.213.889.393C596.276,454.1,596.3,454.114,596.362,454.084Z" transform="translate(-758.347 -466.938)"/><path class="f" d="M644.931,458.119a2.638,2.638,0,0,1-2.176.633,1.621,1.621,0,0,1-1.219-.731,1.4,1.4,0,0,1-.153-1.217,1.634,1.634,0,0,1,1.271-1.072,6.736,6.736,0,0,1,2.2-.185.1.1,0,0,0,.109-.1q-.111-1.142-1.356-1.094a2.571,2.571,0,0,0-1.341.463.137.137,0,0,1-.183-.017l-.394-.493a.1.1,0,0,1,.032-.144,3.3,3.3,0,0,1,2.751-.561,1.647,1.647,0,0,1,1.482,1.85q-.065,1.463.018,3.016a.14.14,0,0,1-.115.144q-.959.2-.873-.459Q645,458.06,644.931,458.119Zm-1.911-.221a1.393,1.393,0,0,0,1.432-.291,1.372,1.372,0,0,0,.487-1.227.115.115,0,0,0-.107-.106,4.482,4.482,0,0,0-1.705.164,1.293,1.293,0,0,0-.561.3.554.554,0,0,0-.151.648A.927.927,0,0,0,643.02,457.9Z" transform="translate(-795.143 -467.019)"/><path class="f" d="M750.865,458.027a2.573,2.573,0,0,1-2.184.607,1.855,1.855,0,0,1-1.128-.584,1.34,1.34,0,0,1-.26-1.315,1.563,1.563,0,0,1,1.185-1.059,6.265,6.265,0,0,1,2.222-.221.187.187,0,0,0,.2-.221,1.187,1.187,0,0,0-1.408-.988,2.741,2.741,0,0,0-1.219.44.167.167,0,0,1-.2-.008l-.481-.461a.093.093,0,0,1,.028-.14,3.4,3.4,0,0,1,2.924-.567,1.612,1.612,0,0,1,1.333,1.7q.024,1.584.024,3.2a.122.122,0,0,1-.1.117q-.931.185-.879-.469Q750.933,457.969,750.865,458.027Zm-1.838-.236q1.526.318,1.884-1.374a.219.219,0,0,0-.219-.257,5.057,5.057,0,0,0-1.689.227,1.129,1.129,0,0,0-.533.325.556.556,0,0,0-.09.652A.865.865,0,0,0,749.027,457.791Z" transform="translate(-879.761 -466.928)"/><path class="f" d="M914.629,456.06a2.825,2.825,0,1,1-2.82-2.65A2.739,2.739,0,0,1,914.629,456.06Zm-2.831,1.7a1.7,1.7,0,1,0-1.712-1.713A1.715,1.715,0,0,0,911.8,457.763Z" transform="translate(-1008.994 -466.939)"/><path class="f" d="M947.454,454.259a.1.1,0,0,0,.167.009,1.822,1.822,0,0,1,1.084-.686,1.946,1.946,0,0,1,2.017.473,2.513,2.513,0,0,1,.5,1.448,17.436,17.436,0,0,1,.028,3.016.115.115,0,0,1-.107.113l-.808-.019a.106.106,0,0,1-.094-.117,20.7,20.7,0,0,0-.117-3.344.78.78,0,0,0-.429-.574,1.279,1.279,0,0,0-.68-.151,1.176,1.176,0,0,0-1,.51,1.86,1.86,0,0,0-.229.947q-.05,1.3-.042,2.612a.109.109,0,0,1-.1.121h-.79a.166.166,0,0,1-.157-.174q.03-1.573-.062-3.016a.926.926,0,0,0-1.231-.971,1.234,1.234,0,0,0-.869.554,1.785,1.785,0,0,0-.224.894q-.054,1.211-.022,2.553a.148.148,0,0,1-.141.157l-.808,0a.112.112,0,0,1-.1-.121q-.02-2.038-.014-4.077a3.9,3.9,0,0,1,.022-.607q.148-.246.867-.089a.148.148,0,0,1,.117.187.5.5,0,0,0-.024.308c.018.044.089.042.129,0a2.049,2.049,0,0,1,2.287-.576A1.353,1.353,0,0,1,947.454,454.259Z" transform="translate(-1036.35 -467.011)"/><path class="f" d="M991.572,458.2V461.5a.108.108,0,0,1-.1.108l-.808.019a.1.1,0,0,1-.1-.1v-7.772a.1.1,0,0,1,.1-.1l.808-.006a.168.168,0,0,1,.167.21.578.578,0,0,0-.024.269c.015.068.053.076.114.023a2.507,2.507,0,0,1,1.687-.645,2.545,2.545,0,0,1,2.166.947,2.822,2.822,0,0,1,.575,1.565,2.41,2.41,0,0,1-.491,1.676,2.574,2.574,0,0,1-1.766,1.036,3.074,3.074,0,0,1-2.194-.588Q991.571,458.045,991.572,458.2Zm1.727-.361a1.707,1.707,0,1,0-1.7-1.724A1.714,1.714,0,0,0,993.3,457.841Z" transform="translate(-1074.16 -467.012)"/><path class="f" d="M1026.857,458.283q.044-.176-.108-.064a2.679,2.679,0,0,1-2.321.55,1.636,1.636,0,0,1-1.134-.835,1.468,1.468,0,0,1,.193-1.54,1.894,1.894,0,0,1,1.144-.626,7.575,7.575,0,0,1,2.051-.157.1.1,0,0,0,.1-.091,1.014,1.014,0,0,0-1-1.123,2.411,2.411,0,0,0-1.627.463.144.144,0,0,1-.169.009l-.485-.456a.111.111,0,0,1,.028-.176,3.553,3.553,0,0,1,2.763-.54,1.678,1.678,0,0,1,1.5,1.975,29.052,29.052,0,0,0,.034,2.918.137.137,0,0,1-.084.136.573.573,0,0,1-.2.028,1.009,1.009,0,0,0-.2.01Q1026.708,458.886,1026.857,458.283Zm-2.029-.346q1.534.44,1.983-1.255a.282.282,0,0,0-.282-.344,4.793,4.793,0,0,0-1.774.274.839.839,0,0,0-.436.327.6.6,0,0,0-.06.569A.8.8,0,0,0,1024.828,457.937Z" transform="translate(-1100.199 -467.106)"/><path class="f" d="M1054.281,453.988a2.48,2.48,0,0,1,2.411-.482,1.631,1.631,0,0,1,1.182,1.737q0,1.576-.026,3.153a.124.124,0,0,1-.1.121,1.808,1.808,0,0,1-.838,0,.123.123,0,0,1-.1-.119q-.018-1.293-.014-2.586a1.783,1.783,0,0,0-.221-1,1.056,1.056,0,0,0-1.118-.454,1.415,1.415,0,0,0-1.259,1.45q-.014,1.228-.014,2.587a.118.118,0,0,1-.114.123l-.833,0a.108.108,0,0,1-.1-.117q-.02-2.119-.012-4.236,0-.023-.026-.295-.032-.357.32-.353.285,0,.42,0,.42-.008.37.442Q1054.209,454.044,1054.281,453.988Z" transform="translate(-1124.128 -466.912)"/><path class="f" d="M781.174,458.933q.052-.155-.086-.057a3.078,3.078,0,0,1-1.579.607,1.923,1.923,0,0,1-1.382-.408,1.7,1.7,0,0,1-.615-1.387q-.012-1.512-.012-3.154a.118.118,0,0,1,.115-.123l.833,0a.109.109,0,0,1,.1.119q.01,1.287.02,2.574a1.77,1.77,0,0,0,.278,1.075,1.155,1.155,0,0,0,1.512.25,1.328,1.328,0,0,0,.816-1.359q-.008-1.27.01-2.538c0-.068.046-.125.1-.123l.78.009a.176.176,0,0,1,.167.181v4.572a.158.158,0,0,1-.127.151Q780.953,459.585,781.174,458.933Z" transform="translate(-903.946 -467.75)"/><path class="f" d="M1083.943,457.928l1.376-3.55a.206.206,0,0,1,.193-.128h.87a.085.085,0,0,1,.085.115q-1.279,3.068-2.49,6.088a1.984,1.984,0,0,1-2.612,1.2.117.117,0,0,1-.1-.123l.112-.709a.093.093,0,0,1,.125-.055,1.074,1.074,0,0,0,1.315-.387,3.51,3.51,0,0,0,.438-1.032.269.269,0,0,0-.01-.178l-2.087-4.8a.087.087,0,0,1,.082-.121l.974.006a.148.148,0,0,1,.139.093l1.446,3.576Q1083.875,458.106,1083.943,457.928Z" transform="translate(-1146.536 -467.62)"/><rect class="f" width="1.058" height="5.009" rx="0.52" transform="translate(-113.327 -13.37)"/></g></g></svg>